<svg xmlns="http://www.w3.org/2000/svg" width="832" height="490" viewBox="0 0 333 196" font-family="Arial, sans-serif">
  <defs>
    <marker id="ah" viewBox="0 0 8 6" refX="8" refY="3"
      markerWidth="4" markerHeight="3" orient="auto">
      <path d="M0.5,0.5 L7,3 L0.5,5.5" fill="none" stroke="#94A3B8"
        stroke-width="1.2" stroke-linejoin="round" stroke-linecap="round"/>
    </marker>
    <filter id="shadow" x="-6%" y="-8%" width="112%" height="128%">
      <feDropShadow dx="0" dy="0.5" stdDeviation="0.8"
        flood-color="#000" flood-opacity="0.05"/>
    </filter>
  </defs>
  <rect width="333" height="196" fill="#F8F9FB" rx="3"/>
  <text x="167" y="11" text-anchor="middle" font-size="6" font-weight="700" fill="#1E293B">SwapEscrow Architecture</text>
  <rect x="92" y="16" width="150" height="10" rx="3" fill="#fff" stroke="#E2E5EA" stroke-width="0.4"/>
  <rect x="97" y="18.5" width="5" height="5" rx="2.5" fill="#fff" stroke="#E2E5EA" stroke-width="0.4"/>
  <text x="105" y="22.5" font-size="3.5" fill="#1E293B">Actor</text>
  <rect x="137" y="18.5" width="5" height="5" rx="1.5" fill="#fff" stroke="#E2E5EA" stroke-width="0.4"/>
  <rect x="138" y="19.5" width="0.8" height="3" rx="0.4" fill="#3B82F6"/>
  <text x="145" y="22.5" font-size="3.5" fill="#1E293B">Protocol</text>
  <rect x="185" y="18.5" width="5" height="5" rx="1.5" fill="#fff" stroke="#E2E5EA" stroke-width="0.4"/>
  <rect x="186" y="19.5" width="0.8" height="3" rx="0.4" fill="#F59E0B"/>
  <text x="193" y="22.5" font-size="3.5" fill="#1E293B">External</text>
  <rect x="37.2" y="146.0" width="206.8" height="40.0" rx="5" fill="#EDEEF2"/>
  <text x="241.0" y="151.0" text-anchor="end" font-size="3.5" fill="#94A3B8" font-weight="500">ERC-20 Tokens</text>
  <path d="M67.0,46.0 C67.0,70.0 116.4,70.0 116.4,94.0" fill="none" stroke="#94A3B8" stroke-width="0.5" marker-end="url(#ah)"/>
  <path d="M266.2,46.0 C266.2,70.0 116.4,70.0 116.4,94.0" fill="none" stroke="#94A3B8" stroke-width="0.5" marker-end="url(#ah)"/>
  <path d="M166.6,46.0 C166.6,70.0 116.4,70.0 116.4,94.0" fill="none" stroke="#94A3B8" stroke-width="0.5" marker-end="url(#ah)"/>
  <path d="M116.4,94.0 C116.4,70.0 67.0,70.0 67.0,46.0" fill="none" stroke="#94A3B8" stroke-width="0.5" marker-end="url(#ah)"/>
  <path d="M116.4,94.0 C116.4,70.0 266.2,70.0 266.2,46.0" fill="none" stroke="#94A3B8" stroke-width="0.5" marker-end="url(#ah)"/>
  <path d="M229.2,44.0 C191.6,66.0 141.6,66.0 104.0,46.0" fill="none" stroke="#94A3B8" stroke-width="0.5" marker-end="url(#ah)"/>
  <path d="M116.4,114.0 C116.4,135.0 88.4,135.0 88.4,156.0" fill="none" stroke="#94A3B8" stroke-width="0.5" marker-end="url(#ah)"/>
  <path d="M116.4,114.0 C116.4,135.0 192.8,135.0 192.8,156.0" fill="none" stroke="#94A3B8" stroke-width="0.5" marker-end="url(#ah)"/>
  <g filter="url(#shadow)">
    <rect x="30.0" y="32.0" width="74.0" height="14" rx="7" fill="#fff" stroke="#E2E5EA" stroke-width="0.5"/>
    <text x="67.0" y="40.8" text-anchor="middle" font-size="4.8" font-weight="600" fill="#1E293B">Creator</text>
  </g>
  <g filter="url(#shadow)">
    <rect x="126.0" y="32.0" width="81.2" height="14" rx="7" fill="#fff" stroke="#E2E5EA" stroke-width="0.5"/>
    <text x="166.6" y="40.8" text-anchor="middle" font-size="4.8" font-weight="600" fill="#1E293B">Owner</text>
  </g>
  <g filter="url(#shadow)">
    <rect x="229.2" y="32.0" width="74.0" height="14" rx="7" fill="#fff" stroke="#E2E5EA" stroke-width="0.5"/>
    <text x="266.2" y="40.8" text-anchor="middle" font-size="4.8" font-weight="600" fill="#1E293B">Executor</text>
  </g>
  <g filter="url(#shadow)">
    <rect x="86.4" y="94.0" width="60.0" height="20" rx="3" fill="#fff" stroke="#E2E5EA" stroke-width="0.5"/>
    <rect x="89.4" y="97.0" width="1.4" height="14" rx="0.6" fill="#3B82F6"/>
    <text x="116.4" y="103.5" text-anchor="middle" font-size="4.8" font-weight="600" fill="#1E293B">Escrow</text>
    <text x="116.4" y="108.5" text-anchor="middle" font-size="3.5" fill="#64748B">Custodian</text>
  </g>
  <g filter="url(#shadow)">
    <rect x="47.2" y="156.0" width="82.4" height="20" rx="3" fill="#fff" stroke="#E2E5EA" stroke-width="0.5"/>
    <rect x="50.2" y="159.0" width="1.4" height="14" rx="0.6" fill="#F59E0B"/>
    <text x="88.4" y="165.5" text-anchor="middle" font-size="4.8" font-weight="600" fill="#1E293B">ERC-20 tokenA</text>
    <text x="88.4" y="170.5" text-anchor="middle" font-size="3.5" fill="#64748B">Escrowed token</text>
  </g>
  <g filter="url(#shadow)">
    <rect x="151.6" y="156.0" width="82.4" height="20" rx="3" fill="#fff" stroke="#E2E5EA" stroke-width="0.5"/>
    <rect x="154.6" y="159.0" width="1.4" height="14" rx="0.6" fill="#F59E0B"/>
    <text x="192.8" y="165.5" text-anchor="middle" font-size="4.8" font-weight="600" fill="#1E293B">ERC-20 tokenB</text>
    <text x="192.8" y="170.5" text-anchor="middle" font-size="3.5" fill="#64748B">Swap token</text>
  </g>
  <rect x="71.7" y="65.0" width="40.0" height="6.0" rx="1" fill="#F8F9FB"/>
  <text x="91.7" y="70.0" font-size="4" fill="#1E293B" font-weight="500" text-anchor="middle">create / cancel</text>
  <rect x="173.7" y="65.0" width="35.2" height="6.0" rx="1" fill="#F8F9FB"/>
  <text x="191.3" y="70.0" font-size="4" fill="#1E293B" font-weight="500" text-anchor="middle">complete swap</text>
  <rect x="119.1" y="65.0" width="44.8" height="6.0" rx="1" fill="#F8F9FB"/>
  <text x="141.5" y="70.0" font-size="4" fill="#1E293B" font-weight="500" text-anchor="middle">add token / pause</text>
  <rect x="74.1" y="57.0" width="35.2" height="6.0" rx="1" fill="#F8F9FB"/>
  <text x="91.7" y="62.0" font-size="4" fill="#1E293B" font-weight="500" text-anchor="middle">refund tokenA</text>
  <rect x="172.5" y="57.0" width="37.6" height="6.0" rx="1" fill="#F8F9FB"/>
  <text x="191.3" y="62.0" font-size="4" fill="#1E293B" font-weight="500" text-anchor="middle">release tokenA</text>
  <rect x="143.0" y="73.0" width="47.2" height="6.0" rx="1" fill="#F8F9FB"/>
  <text x="166.6" y="78.0" font-size="4" fill="#1E293B" font-weight="500" text-anchor="middle">send tokenB direct</text>
  <rect x="72.8" y="130.0" width="59.2" height="6.0" rx="1" fill="#F8F9FB"/>
  <text x="102.4" y="135.0" font-size="4" fill="#1E293B" font-weight="500" text-anchor="middle">transferFrom / transfer</text>
  <rect x="138.2" y="130.0" width="32.8" height="6.0" rx="1" fill="#F8F9FB"/>
  <text x="154.6" y="135.0" font-size="4" fill="#1E293B" font-weight="500" text-anchor="middle">transferFrom</text>
</svg>